<svg preserveAspectRatio="xMidYMid meet" data-bbox="0.977 0.99 207.898 241.16" viewBox="0 0 209.89 242.15" xmlns="http://www.w3.org/2000/svg" data-type="ugc" role="presentation" aria-hidden="true">
    <g>
        <g>
            <path d="M197.28 67a50.75 50.75 0 0 0-16.34-12.59 53.88 53.88 0 0 0-19-5 55.17 55.17 0 0 0-6.61-.09v-.07c0-26.65-23-48.26-51.27-48.26S52.82 22.61 52.82 49.26c-2 0-3.73 0-4.91.14a53.72 53.72 0 0 0-18.95 5A50.5 50.5 0 0 0 12.62 67C11.21 68.68.41 81.75 1 97.54a60 60 0 0 0 1.55 10.51 59.31 59.31 0 0 0 3.94 11.17 66.29 66.29 0 0 0 7.42 11 19.38 19.38 0 0 0 2.89 2.66c.69.57 1 .82 1.46.78a1.08 1.08 0 0 0 .5-.2 40.63 40.63 0 0 0-4.87 19.38c.18 31.69 24.33 45.22 42.58 44.82.09-.07.12-.2.18-.29 25.81.52 46.56 20.36 46.57 44.78 0-24.74 21.31-44.8 47.6-44.8h.85c8.73.15 23-2.88 33.34-14.5 11.85-13.31 12.08-30.74 9.88-38.3 0 0-.21-.73-3.32-10.89 0 0 3.5-2.74 4.35-3.44 3.5-2.87 5.3-6.61 7.42-11a56.63 56.63 0 0 0 3.94-11.18 61.12 61.12 0 0 0 1.56-10.51c.64-15.77-10.16-28.84-11.56-30.53Z" fill="none" stroke="#ffffff" stroke-miterlimit="10" stroke-width="2"></path>
            <path d="M57.35 108.06c8.64-.28 16.85 3 20.3 4.65a50.55 50.55 0 0 1 19.32 16 49.65 49.65 0 0 1 7.11 17c.4 1.83 1.09 6.31-.56 7.17-.54.29 2.39-.2-1.32 0s-17.52.74-29.64 11.22c-2 1.74-15 13-15.46 28.41 0 2.6.35 4.41-.6 5.15-18.25.4-42.4-13.13-42.58-44.82-.14-25.65 24.21-44.16 43.43-44.78Z" fill="none" stroke="#ffffff" stroke-miterlimit="10" stroke-width="2"></path>
            <path d="M104.1 152.55c0-24.74 21.31-44.8 47.6-44.8h.85C152.55 83 131.23 63 105 63s-47.65 20-47.65 44.75c25.89.44 46.74 20.33 46.75 44.8Z" fill="none" stroke="#ffffff" stroke-miterlimit="10" stroke-width="2"></path>
            <path d="M103.25 242.15c0-24.74 21.31-44.8 47.6-44.8h.85c0-24.74-21.31-44.8-47.6-44.8s-47.6 20.06-47.6 44.8c25.89.44 46.74 20.32 46.75 44.8Z" fill="none" stroke="#ffffff" stroke-miterlimit="10" stroke-width="2"></path>
            <path d="M151.79 108.06c-8.65-.28-16.85 3-20.3 4.65a50.55 50.55 0 0 0-19.33 16 49.65 49.65 0 0 0-7.11 17c-.39 1.83-1.08 6.31.56 7.17.55.29-2.38-.2 1.33 0s17.51.74 29.64 11.22c2 1.74 15 13 15.46 28.41 0 2.6-.36 4.41.6 5.15 18.24.4 42.4-13.13 42.57-44.82.14-25.65-24.21-44.16-43.42-44.78Z" fill="none" stroke="#ffffff" stroke-miterlimit="10" stroke-width="2"></path>
            <path d="M57.35 107.75c-.38.41-1 .38-1.64.4-1.06 0-2.09.35-3.14.44a25.86 25.86 0 0 0-5.52 1.27 45 45 0 0 0-10.33 4.84 46.15 46.15 0 0 0-9.21 7.2c-4.22 4.3-6.34 6.45-7.2 8.92-.24.67-.89 2.74-2 2.84-.42 0-.77-.21-1.46-.78a19.38 19.38 0 0 1-2.89-2.66 66.29 66.29 0 0 1-7.42-11 59.31 59.31 0 0 1-3.94-11.17A60 60 0 0 1 1 97.54C.41 81.75 11.21 68.68 12.62 67A50.5 50.5 0 0 1 29 54.43a53.72 53.72 0 0 1 18.95-5A55.79 55.79 0 0 1 68.4 51.7c12.37 3.78 22.75 11.62 22 13.5-.13.3-.45.26-2.27.84 0 0-1.66.52-5.6 2.2a38.86 38.86 0 0 0-9.56 6.36A46.53 46.53 0 0 0 66 82c-5.73 7.77-7.75 16-7.9 18.8-.09 1.83-.81 3.66-.52 5.46a1.8 1.8 0 0 1-.23 1.49Z" fill="none" stroke="#ffffff" stroke-miterlimit="10" stroke-width="2"></path>
            <path d="M152.55 107.76c.37.41 1 .38 1.63.4 1.06 0 2.09.35 3.14.44a25.86 25.86 0 0 1 5.52 1.27 45 45 0 0 1 10.33 4.84 46.15 46.15 0 0 1 9.21 7.2c4.23 4.3 6.34 6.45 7.2 8.92.24.67.89 2.74 2 2.84.42 0 .77-.21 1.46-.78a19.38 19.38 0 0 0 2.89-2.66 66.29 66.29 0 0 0 7.42-11 59.31 59.31 0 0 0 3.94-11.17 60.69 60.69 0 0 0 1.56-10.51c.61-15.79-10.19-28.86-11.59-30.52a50.75 50.75 0 0 0-16.34-12.59 53.88 53.88 0 0 0-19-5 55.8 55.8 0 0 0-20.49 2.29c-12.37 3.78-22.74 11.62-22 13.5.13.3.45.26 2.27.84 0 0 1.66.52 5.6 2.2a38.86 38.86 0 0 1 9.7 6.34 46.53 46.53 0 0 1 7 7.43c5.7 7.74 7.72 15.94 7.87 18.77.09 1.83.81 3.66.52 5.46a1.77 1.77 0 0 0 .16 1.49Z" fill="none" stroke="#ffffff" stroke-miterlimit="10" stroke-width="2"></path>
            <path d="M119.6 109.88h-11.08v-.24a7.52 7.52 0 0 0 1-.06 1.68 1.68 0 0 0 1.3-.89 1.17 1.17 0 0 0 .15-.55V108q-.09-.62-4.17-12l-4.2-11.59-2.2 6.06a18 18 0 0 0-.94 3.3 7.62 7.62 0 0 0-.08 1.11 2.76 2.76 0 0 0 .16 1 1.16 1.16 0 0 0 1.15.79 3.45 3.45 0 0 0 1.58-.55 4 4 0 0 1 1.69-.58 1.83 1.83 0 0 1 1 .3 1.23 1.23 0 0 1 .58 1.08 2 2 0 0 1-.82 1.55 8.23 8.23 0 0 1-3.08 1.49 14.55 14.55 0 0 0-2.24.9 10.11 10.11 0 0 0-3.4 2.96 9.13 9.13 0 0 0-1.1 1.85 4 4 0 0 0-.39 1.7v.39a1.91 1.91 0 0 0 1 1.52 3.64 3.64 0 0 0 1.65.38h.24v.23h-8.6v-.23a6 6 0 0 0 3-.78 5.4 5.4 0 0 0 2.2-2.13 1.63 1.63 0 0 0 .11-.23l.11-.26A11.63 11.63 0 0 1 96 103a10.06 10.06 0 0 1 2.79-2.45 16.62 16.62 0 0 1 3.21-1.33 14.94 14.94 0 0 0 1.46-.55 3.45 3.45 0 0 0 1.17-.86 1.59 1.59 0 0 0 .41-1.06c0-.39-.23-.65-.7-.8a1.47 1.47 0 0 0-.36 0 3.47 3.47 0 0 0-1.6.58 6.4 6.4 0 0 1-.75.36 2.37 2.37 0 0 1-.92.19 3.16 3.16 0 0 1-.67-.1c-.3-.06-.57-.33-.81-.82a3 3 0 0 1-.3-1.16 12 12 0 0 1 1-4.64l.66-1.81 4-11.09h.41s1.63 4.5 4.89 13.45q4.68 12.87 5.1 14.07l.07.18a18.71 18.71 0 0 0 .78 1.94 3.87 3.87 0 0 0 3 2.49h.69Z" fill="#ffffff"></path>
        </g>
    </g>
</svg>